#!OML:ASF H:\Terrain\Patient Classification 1\Terrain2\Thursday\justin.ASF
:FULLY-SPECIFIED
:DEGREES
2830
root -1.13577 17.7909 27.0617 -361.604 -3.90499 1.0382
lowerback 5.79953 -0.460996 -3.6097
upperback 1.9492 -0.789606 1.79959
thorax -1.1662 -0.405089 3.93934
lowerneck -16.1723 1.523 -6.68574
upperneck 30.5078 4.03813 0.712172
head 12.7104 1.09243 2.04318
rclavicle -1.92821e-014 6.36111e-015
rhumerus -35.1593 -12.9164 -79.8478
rradius 30.2786
rwrist -11.6717
rhand -20.3087 12.3984
rfingers 7.12502
rthumb 6.0418 -17.4955
lclavicle -1.92821e-014 6.36111e-015
lhumerus -31.8196 5.99284 82.5763
lradius 32.4696
lwrist 4.37632
lhand -14.6438 23.1132
lfingers 7.12502
lthumb 11.5083 52.7773
rfemur -16.9851 -1.2398 19.7081
rtibia 50.6919
rfoot -19.514 -6.7528
rtoes 1.44318
lfemur -11.4389 6.73456 -21.1935
ltibia 23.5286
lfoot -6.2217 -21.7161
ltoes 3.19264
2831
root -1.14618 17.7783 27.1187 -361.558 -3.92749 0.878524
lowerback 5.70091 -0.518906 -3.52427
upperback 2.0099 -0.85819 1.83807
thorax -1.04294 -0.443221 3.93312
lowerneck -15.9659 1.56063 -6.44959
upperneck 30.1044 4.09368 0.375371
head 12.5157 1.11498 1.87022
rclavicle -3.57812e-015 -5.1684e-015
rhumerus -35.1181 -12.7341 -80.068
rradius 30.6183
rwrist -11.9341
rhand -20.4372 12.1999
rfingers 7.12502
rthumb 5.9177 -17.6974
lclavicle -3.57812e-015 -5.1684e-015
lhumerus -31.5675 5.91978 82.5029
lradius 32.6375
lwrist 3.94318
lhand -15.6526 22.6151
lfingers 7.12502
lthumb 10.5353 52.3311
rfemur -17.0935 -1.05124 20.012
rtibia 49.2306
rfoot -20.2961 -6.76168
rtoes 1.47302
lfemur -11.5744 6.81488 -20.9715
ltibia 24.1525
lfoot -6.52797 -21.7723
ltoes 4.31349
2832
root -1.14981 17.7664 27.1708 -361.552 -3.87584 1.15141
lowerback 5.87574 -0.548093 -3.70341
upperback 1.925 -0.915273 1.68768
thorax -1.222 -0.466065 3.88578
lowerneck -15.9051 1.53009 -6.36986
upperneck 30.0881 4.00674 0.411705
head 12.4995 1.09112 1.8562
rclavicle -9.44227e-015 -7.95139e-015
rhumerus -35.2516 -12.6579 -80.2027
rradius 30.7828
rwrist -11.7298
rhand -20.4222 12.2105
rfingers 7.12502
rthumb 5.93225 -17.6864
lclavicle -9.44227e-015 -7.95139e-015
lhumerus -31.5287 5.3661 82.5473
lradius 32.8365
lwrist 4.29109
lhand -16.6671 22.0834
lfingers 7.12502
lthumb 9.55655 51.8467
rfemur -17.2134 -1.08127 19.7509
rtibia 47.79
rfoot -20.9485 -6.61094
rtoes 1.62967
lfemur -11.6592 6.83348 -21.2752
ltibia 24.6633
lfoot -6.79102 -21.8538
ltoes 5.01379
2833
root -1.1522 17.7569 27.2133 -361.494 -3.752 1.55338
lowerback 6.00101 -0.631071 -4.12935
upperback 1.87751 -1.05717 1.57857
thorax -1.3209 -0.533854 4.0257
lowerneck -16.0483 1.50155 -6.47596
upperneck 30.2869 3.94698 0.62614
head 12.6036 1.0723 1.9537
rclavicle 1.71949e-014 1.51076e-014
rhumerus -35.273 -12.3767 -80.3181
rradius 31.0282
rwrist -11.412
rhand -20.219 12.4362
rfingers 7.12502
rthumb 6.12838 -17.4551
lclavicle 1.71949e-014 1.51076e-014
lhumerus -31.3514 5.10368 82.563
lradius 32.8952
lwrist 4.4965
lhand -16.4728 22.0563
lfingers 7.12502
lthumb 9.74398 51.8109
rfemur -17.4537 -1.25316 19.34
rtibia 46.3596
rfoot -21.424 -6.33989
rtoes 2.81895
lfemur -11.7781 6.67391 -21.7528
ltibia 25.0723
lfoot -7.22259 -21.7864
ltoes 4.76297
2834
root -1.15499 17.7514 27.2663 -361.47 -3.68651 1.67507
lowerback 5.982 -0.777 -4.36795
upperback 1.91935 -1.26362 1.62455
thorax -1.23955 -0.640358 4.22126
lowerneck -16.2942 1.57597 -6.45495
upperneck 30.4373 4.12332 0.474332
head 12.7159 1.12362 1.92587
rclavicle 9.79014e-015 5.96354e-015
rhumerus -34.8974 -11.9999 -80.4012
rradius 30.9114
rwrist -11.1361
rhand -19.7982 12.5707
rfingers 7.12502
rthumb 6.53459 -17.3085
lclavicle 9.79014e-015 5.96354e-015
lhumerus -31.1186 5.27566 82.5108
lradius 32.924
lwrist 4.57282
lhand -16.3724 21.8007
lfingers 7.12502
lthumb 9.84084 51.5507
rfemur -17.5292 -1.586 19.3077
rtibia 44.9945
rfoot -21.7001 -6.37161
rtoes 2.23795
lfemur -11.7262 6.42088 -21.9116
ltibia 25.4181
lfoot -8.19699 -21.4242
ltoes 1.85472
2835
root -1.16295 17.7458 27.3251 -361.482 -3.67932 1.11164
lowerback 5.72768 -0.883794 -3.82531
upperback 2.13368 -1.36166 1.78763
thorax -0.876131 -0.702064 4.08078
lowerneck -16.547 1.58409 -6.57387
upperneck 30.4197 4.16393 0.562419
head 12.7549 1.13776 1.99037
rclavicle 6.95746e-015 -9.14409e-015
rhumerus -34.2401 -11.928 -80.4899
rradius 30.6145
rwrist -10.6763
rhand -19.4553 12.5481
rfingers 7.12502
rthumb 6.86564 -17.3206
lclavicle 6.95746e-015 -9.14409e-015
lhumerus -30.7072 5.48899 82.4288
lradius 33.0635
lwrist 4.1429
lhand -15.2996 22.3345
lfingers 7.12502
lthumb 10.8758 52.0329
rfemur -17.5073 -1.78328 20.1127
rtibia 43.7398
rfoot -21.8688 -6.723
rtoes 1.02816
lfemur -11.6024 6.52704 -21.2208
ltibia 25.7286
lfoot -8.7144 -21.5197
ltoes 0.677745
2836
root -1.17489 17.7345 27.3824 -361.446 -3.68243 0.809016
lowerback 5.39989 -0.927453 -3.51342
upperback 2.30135 -1.39201 1.82606
thorax -0.524938 -0.727127 3.93576
lowerneck -16.5361 1.51175 -6.78389
upperneck 30.2954 4.02984 0.831337
head 12.6936 1.09542 2.10602
rclavicle 1.78906e-015 -4.77083e-015
rhumerus -33.8685 -11.732 -80.6868
rradius 30.6795
rwrist -10.5858
rhand -19.4375 12.307
rfingers 7.12502
rthumb 6.88282 -17.5611
lclavicle 1.78906e-015 -4.77083e-015
lhumerus -30.2976 5.19499 82.4895
lradius 33.1582
lwrist 4.42997
lhand -15.8739 22.4166
lfingers 7.12502
lthumb 10.3218 52.1433
rfemur -17.6426 -2.02265 20.6262
rtibia 42.6627
rfoot -21.7504 -7.0192
rtoes 0.559106
lfemur -11.5415 6.85723 -20.8245
ltibia 25.9611
lfoot -9.04645 -21.8284
ltoes 0.831188
2837
root -1.18187 17.7244 27.4389 -361.493 -3.69898 1.061
lowerback 5.32833 -0.940059 -3.70324
upperback 2.32278 -1.41683 1.71405
thorax -0.45853 -0.742018 3.92616
lowerneck -16.3816 1.49322 -6.78508
upperneck 30.2902 3.9958 0.807695
head 12.6615 1.07812 2.08886
rclavicle -2.18663e-015 -1.31198e-014
rhumerus -33.857 -11.6647 -80.7415
rradius 30.9106
rwrist -10.4606
rhand -19.2708 12.0103
rfingers 7.12502
rthumb 7.0438 -17.8525
lclavicle -2.18663e-015 -1.31198e-014
lhumerus -30.1602 4.81523 82.5304
lradius 33.3134
lwrist 5.27513
lhand -17.5633 21.819
lfingers 7.12502
lthumb 8.69178 51.62
rfemur -17.7179 -2.62191 20.503
rtibia 41.7854
rfoot -21.3144 -7.12744
rtoes -0.416144
lfemur -11.3116 6.74304 -21.0939
ltibia 26.0669
lfoot -9.40926 -21.4948
ltoes 1.2325
2838
root -1.18906 17.7199 27.4878 -361.66 -3.70027 1.35928
lowerback 5.54958 -0.921046 -3.93032
upperback 2.27226 -1.41213 1.58056
thorax -0.631744 -0.73531 3.92178
lowerneck -16.05 1.45258 -6.78274
upperneck 30.1816 3.91068 0.778103
head 12.5525 1.04321 2.05573
rclavicle -1.28713e-014 4.77083e-015
rhumerus -34.0138 -11.6345 -80.7858
rradius 31.0582
rwrist -10.3476
rhand -19.2149 12.2839
rfingers 7.12502
rthumb 7.09773 -17.5771
lclavicle -1.28713e-014 4.77083e-015
lhumerus -30.1596 5.01452 82.2456
lradius 33.5101
lwrist 4.44326
lhand -16.4248 22.25
lfingers 7.12502
lthumb 9.79031 52.0024
rfemur -17.6529 -3.15812 20.3418
rtibia 41.0672
rfoot -20.8885 -7.09051
rtoes 1.30797
lfemur -10.9636 6.53004 -21.3571
ltibia 26.1072
lfoot -9.18575 -21.3398
ltoes 3.9733
2839
root -1.19549 17.7159 27.5312 -361.777 -3.62502 1.78367
lowerback 5.928 -0.935733 -4.35229
upperback 2.04102 -1.47294 1.47333
thorax -1.06641 -0.751573 4.06532
lowerneck -15.4623 1.41603 -6.93842
upperneck 30.0376 3.83011 0.820581
head 12.371 1.00499 2.07225
rclavicle -2.76808e-014 9.93923e-015
rhumerus -34.3226 -11.0247 -80.9282
rradius 31.0854
rwrist -10.8347
rhand -19.6255 12.6493
rfingers 7.12502
rthumb 6.70137 -17.2246
lclavicle -2.76808e-014 9.93923e-015
lhumerus -30.3895 5.3993 82.008
lradius 33.6267
lwrist 3.07279
lhand -15.0394 22.7528
lfingers 7.12502
lthumb 11.1267 52.4379
rfemur -17.6264 -3.83812 20.0247
rtibia 40.4252
rfoot -20.3195 -6.92211
rtoes 4.48505
lfemur -10.7455 6.58321 -21.7809
ltibia 26.2036
lfoot -9.22905 -21.5815
ltoes 5.35815
2840
root -1.20139 17.7068 27.5724 -361.83 -3.50335 1.87014
lowerback 5.04364 -0.947697 -4.31896
upperback 2.76846 -1.44274 1.38515
thorax 0.170747 -0.781798 3.92121
lowerneck -16.0272 1.27061 -7.08489
upperneck 29.7686 3.64527 1.01552
head 12.3798 0.938466 2.14911
rclavicle -8.84592e-015 -2.78299e-015
rhumerus -33.1003 -11.0781 -81.2653
rradius 30.9921
rwrist -11.2661
rhand -19.8437 12.5683
rfingers 7.12502
rthumb 6.49074 -17.3122
lclavicle -8.84592e-015 -2.78299e-015
lhumerus -28.9782 5.53734 82.1372
lradius 33.5148
lwrist 2.98123
lhand -14.9552 22.898
lfingers 7.12502
lthumb 11.2079 52.5787
rfemur -17.5759 -4.80042 20.1237
rtibia 39.7757
rfoot -19.44 -7.1
rtoes 6.48456
lfemur -10.6644 6.7163 -21.8577
ltibia 26.4611
lfoot -9.76278 -21.8852
ltoes 4.08055
2841
root -1.20858 17.6968 27.6194 -361.963 -3.58202 1.51925
lowerback 5.36624 -0.920357 -3.89642
upperback 2.58914 -1.40144 1.43767
thorax -0.208582 -0.744747 3.74512
lowerneck -15.9684 1.29585 -7.04394
upperneck 30.2692 3.63369 1.1631
head 12.5669 0.939621 2.2068
rclavicle -4.67144e-015 -1.11319e-014
rhumerus -33.4995 -10.8472 -81.246
rradius 31.2046
rwrist -11.3956
rhand -19.6163 12.3221
rfingers 7.12502
rthumb 6.7102 -17.5516
lclavicle -4.67144e-015 -1.11319e-014
lhumerus -29.2058 5.67453 82.0631
lradius 33.6304
lwrist 2.85158
lhand -14.1106 23.4001
lfingers 7.12502
lthumb 12.0224 53.0348
rfemur -17.2995 -5.58074 20.7511
rtibia 39.1141
rfoot -18.5412 -7.65663
rtoes 9.85851
lfemur -10.5175 6.73251 -21.4014
ltibia 26.9147
lfoot -10.3388 -21.9489
ltoes 3.00223
2842
root -1.23365 17.692 27.6727 -362.133 -4.12167 0.622368
lowerback 5.55783 -0.806238 -3.20869
upperback 2.54666 -1.2203 1.72637
thorax -0.385805 -0.645849 3.65117
lowerneck -15.9388 1.36315 -6.90062
upperneck 30.5893 3.73885 1.02846
head 12.6938 0.972506 2.15296
rclavicle 1.09332e-014 1.63003e-014
rhumerus -33.6064 -10.569 -81.2223
rradius 31.3884
rwrist -11.0543
rhand -19.2234 11.9672
rfingers 7.12502
rthumb 7.08952 -17.8941
lclavicle 1.09332e-014 1.63003e-014
lhumerus -29.0698 5.77463 82.0056
lradius 33.3349
lwrist 2.56776
lhand -14.5117 23.3259
lfingers 7.12502
lthumb 11.6357 52.9829
rfemur -16.8959 -5.38882 22.1423
rtibia 38.5834
rfoot -17.8637 -9.0746
rtoes 12.8512
lfemur -10.2256 6.75682 -20.2198
ltibia 27.3147
lfoot -11.0906 -21.4452
ltoes 1.64454
